<?xml version="1.0" encoding="UTF-8" standalone="no"?>
<!-- Created with Inkscape (http://www.inkscape.org/) -->

<svg
   xmlns:dc="http://purl.org/dc/elements/1.1/"
   xmlns:cc="http://creativecommons.org/ns#"
   xmlns:rdf="http://www.w3.org/1999/02/22-rdf-syntax-ns#"
   xmlns:svg="http://www.w3.org/2000/svg"
   xmlns="http://www.w3.org/2000/svg"
   xmlns:xlink="http://www.w3.org/1999/xlink"
   xmlns:sodipodi="http://sodipodi.sourceforge.net/DTD/sodipodi-0.dtd"
   xmlns:inkscape="http://www.inkscape.org/namespaces/inkscape"
   width="48"
   height="48"
   id="svg2"
   version="1.1"
   inkscape:version="0.91+devel r"
   sodipodi:docname="r.svg"
   inkscape:export-filename="/home/uri/workspace/NitruxforAndroid/res/drawable-xhdpi/flash_settings.png"
   inkscape:export-xdpi="180"
   inkscape:export-ydpi="180">
  <defs
     id="defs4">
    <linearGradient
       id="linearGradient4090">
      <stop
         style="stop-color:#b9ddff;stop-opacity:1"
         offset="0"
         id="stop4092" />
      <stop
         style="stop-color:#f5fcff;stop-opacity:1"
         offset="1"
         id="stop4094" />
    </linearGradient>
    <linearGradient
       id="linearGradient908">
      <stop
         id="stop910"
         offset="0"
         style="stop-color:#0062bf;stop-opacity:1" />
      <stop
         id="stop912"
         offset="1"
         style="stop-color:#0095d4;stop-opacity:1" />
    </linearGradient>
    <linearGradient
       gradientTransform="translate(50.007066,-15.57597)"
       gradientUnits="userSpaceOnUse"
       y2="-988.80719"
       x2="-25.667843"
       y1="-1036.7864"
       x1="-25.667843"
       id="linearGradient848"
       xlink:href="#linearGradient908"
       inkscape:collect="always" />
    <linearGradient
       inkscape:collect="always"
       xlink:href="#linearGradient4090"
       id="linearGradient4226"
       gradientUnits="userSpaceOnUse"
       x1="25"
       y1="1039.3622"
       x2="25"
       y2="1016.3622"
       gradientTransform="matrix(0.99509938,0,0,0.9883021,-0.96723898,12.747976)" />
  </defs>
  <sodipodi:namedview
     id="base"
     pagecolor="#ffffff"
     bordercolor="#666666"
     borderopacity="1.0"
     inkscape:pageopacity="0.0"
     inkscape:pageshadow="2"
     inkscape:zoom="4.5402807"
     inkscape:cx="20.877659"
     inkscape:cy="42.124741"
     inkscape:document-units="px"
     inkscape:current-layer="layer1"
     showgrid="true"
     inkscape:window-width="1366"
     inkscape:window-height="670"
     inkscape:window-x="-4"
     inkscape:window-y="29"
     inkscape:window-maximized="1">
    <inkscape:grid
       type="xygrid"
       id="grid4213" />
  </sodipodi:namedview>
  <metadata
     id="metadata7">
    <rdf:RDF>
      <cc:Work
         rdf:about="">
        <dc:format>image/svg+xml</dc:format>
        <dc:type
           rdf:resource="http://purl.org/dc/dcmitype/StillImage" />
        <dc:title />
      </cc:Work>
    </rdf:RDF>
  </metadata>
  <g
     inkscape:label="Capa 1"
     inkscape:groupmode="layer"
     id="layer1"
     transform="translate(0,-1004.3622)">
    <rect
       style="fill:url(#linearGradient848);fill-opacity:1;stroke:none"
       id="rect2991-1-8"
       width="48"
       height="48"
       x="4.7241215e-08"
       y="-1052.3622"
       ry="1.9445436"
       transform="scale(1,-1)" />
    <path
       d="m 22.115727,1028.317 q 1.795252,0 2.566765,-0.663 0.786351,-0.6632 0.786351,-2.1809 0,-1.503 -0.786351,-2.1513 -0.771513,-0.6484 -2.566765,-0.6484 l -2.403561,0 0,5.6436 2.403561,0 z m -2.403561,3.9197 0,8.3255 -5.712166,0 0,-22 8.724035,0 q 4.376855,0 6.409496,1.4588 2.047478,1.4589 2.047478,4.6122 0,2.1808 -1.068249,3.5808 -1.053413,1.3998 -3.189912,2.0628 1.172108,0.2653 2.091989,1.2083 0.934717,0.9285 1.884273,2.8293 l 3.10089,6.2478 -6.083086,0 -2.700297,-5.4668 q -0.816023,-1.6504 -1.66172,-2.2545 -0.830862,-0.6042 -2.22552,-0.6042 l -1.617211,0 z"
       style="font-style:normal;font-variant:normal;font-weight:bold;font-stretch:normal;font-size:medium;line-height:125%;font-family:Sans;-inkscape-font-specification:'Sans Bold';letter-spacing:0px;word-spacing:0px;fill:#000000;fill-opacity:0.05882353;stroke:none"
       id="path4235"
       inkscape:connector-curvature="0" />
    <path
       inkscape:connector-curvature="0"
       id="path4233"
       style="font-style:normal;font-variant:normal;font-weight:bold;font-stretch:normal;font-size:medium;line-height:125%;font-family:Sans;-inkscape-font-specification:'Sans Bold';letter-spacing:0px;word-spacing:0px;fill:#000000;fill-opacity:0.11764706;stroke:none"
       d="m 22.115727,1027.917 q 1.795252,0 2.566765,-0.663 0.786351,-0.6632 0.786351,-2.1809 0,-1.503 -0.786351,-2.1513 -0.771513,-0.6484 -2.566765,-0.6484 l -2.403561,0 0,5.6436 2.403561,0 z m -2.403561,3.9197 0,8.3255 -5.712166,0 0,-22 8.724035,0 q 4.376855,0 6.409496,1.4588 2.047478,1.4589 2.047478,4.6122 0,2.1808 -1.068249,3.5808 -1.053413,1.3998 -3.189912,2.0628 1.172108,0.2653 2.091989,1.2083 0.934717,0.9285 1.884273,2.8293 l 3.10089,6.2478 -6.083086,0 -2.700297,-5.4668 q -0.816023,-1.6504 -1.66172,-2.2545 -0.830862,-0.6042 -2.22552,-0.6042 l -1.617211,0 z" />
    <path
       inkscape:connector-curvature="0"
       style="fill:#000000;fill-opacity:1;stroke:none"
       d="m -4.7241208e-8,1049.3622 0,1.0625 c 0,1.0773 0.860222997241208,1.9375 1.937500047241208,1.9375 l 44.125,0 c 1.077277,0 1.9375,-0.8602 1.9375,-1.9375 l 0,-1.0625 c 0,1.0773 -0.860223,1.9375 -1.9375,1.9375 l -44.125,0 c -1.07727705,0 -1.937500047241208,-0.8602 -1.937500047241208,-1.9375 z"
       id="rect846" />
    <path
       inkscape:connector-curvature="0"
       style="fill:#ffffff;fill-opacity:0.5372549;stroke:none"
       d="m 2.53125,1005.0185 c -0.917089,0 -1.67114705,0.6395 -1.84375005,1.5 C 1.023112,1006.2386 1.462012,1006.081 1.9375,1006.081 l 44.125,0 c 0.475488,0 0.914388,0.1576 1.25,0.4375 -0.172603,-0.8605 -0.926662,-1.5 -1.84375,-1.5 l -42.9375,0 z"
       id="path7515" />
    <path
       inkscape:connector-curvature="0"
       style="fill:#000000;fill-opacity:0.39215686;stroke:none"
       d="m 1.9375,1004.3622 c -1.07727705,0 -1.937500047241208,0.8602 -1.937500047241208,1.9375 l 0,43.0625 c 0,0.7934 0.480023997241208,1.449 1.156250047241208,1.75 -0.30934205,-0.3333 -0.50000005,-0.7824 -0.50000005,-1.2812 l 0,-42.9375 c 0,-1.0482 0.82689905,-1.875 1.87500005,-1.875 l 42.9375,0 c 1.048101,0 1.875,0.8268 1.875,1.875 l 0,42.9375 c 0,0.4988 -0.190658,0.9479 -0.5,1.2812 0.676226,-0.301 1.15625,-0.9566 1.15625,-1.75 l 0,-43.0625 c 0,-1.0773 -0.860223,-1.9375 -1.9375,-1.9375 l -44.125,0 z"
       id="rect4280" />
    <path
       d="m 22.115727,1027.517 q 1.795252,0 2.566765,-0.663 0.786351,-0.6632 0.786351,-2.1809 0,-1.503 -0.786351,-2.1513 -0.771513,-0.6484 -2.566765,-0.6484 l -2.403561,0 0,5.6436 2.403561,0 z m -2.403561,3.9197 0,8.3255 -5.712166,0 0,-22 8.724035,0 q 4.376855,0 6.409496,1.4588 2.047478,1.4589 2.047478,4.6122 0,2.1808 -1.068249,3.5808 -1.053413,1.3998 -3.189912,2.0628 1.172108,0.2653 2.091989,1.2083 0.934717,0.9285 1.884273,2.8293 l 3.10089,6.2478 -6.083086,0 -2.700297,-5.4668 q -0.816023,-1.6504 -1.66172,-2.2545 -0.830862,-0.6042 -2.22552,-0.6042 l -1.617211,0 z"
       style="font-style:normal;font-variant:normal;font-weight:bold;font-stretch:normal;font-size:medium;line-height:125%;font-family:Sans;-inkscape-font-specification:'Sans Bold';letter-spacing:0px;word-spacing:0px;fill:#000000;fill-opacity:0.23529412;stroke:none"
       id="path4229"
       inkscape:connector-curvature="0" />
    <path
       inkscape:connector-curvature="0"
       id="path4216"
       style="font-style:normal;font-variant:normal;font-weight:bold;font-stretch:normal;font-size:medium;line-height:125%;font-family:Sans;-inkscape-font-specification:'Sans Bold';letter-spacing:0px;word-spacing:0px;fill:url(#linearGradient4226);fill-opacity:1;stroke:none"
       d="m 22.115727,1027.117 q 1.795252,0 2.566765,-0.663 0.786351,-0.6632 0.786351,-2.1809 0,-1.503 -0.786351,-2.1513 -0.771513,-0.6484 -2.566765,-0.6484 l -2.403561,0 0,5.6436 2.403561,0 z m -2.403561,3.9197 0,8.3255 -5.712166,0 0,-22 8.724035,0 q 4.376855,0 6.409496,1.4588 2.047478,1.4589 2.047478,4.6122 0,2.1808 -1.068249,3.5808 -1.053413,1.3998 -3.189912,2.0628 1.172108,0.2653 2.091989,1.2083 0.934717,0.9285 1.884273,2.8293 l 3.10089,6.2478 -6.083086,0 -2.700297,-5.4668 q -0.816023,-1.6504 -1.66172,-2.2545 -0.830862,-0.6042 -2.22552,-0.6042 l -1.617211,0 z" />
    <path
       style="font-style:normal;font-variant:normal;font-weight:bold;font-stretch:normal;font-size:medium;line-height:125%;font-family:Sans;-inkscape-font-specification:'Sans Bold';letter-spacing:0px;word-spacing:0px;fill:#0066c1;fill-opacity:0.3137255;stroke:none"
       d="M 19.712891 16.310547 L 19.712891 17.111328 L 22.115234 17.111328 C 23.312069 17.111328 24.167299 17.327499 24.681641 17.759766 C 25.131357 18.13053 25.377481 18.723584 25.441406 19.513672 C 25.452073 19.380934 25.46875 19.255658 25.46875 19.111328 C 25.46875 18.109328 25.205875 17.391184 24.681641 16.958984 C 24.167299 16.526718 23.312069 16.310547 22.115234 16.310547 L 19.712891 16.310547 z M 31.160156 18.589844 C 31.109866 19.895785 30.770993 20.989595 30.113281 21.851562 C 29.411006 22.784762 28.346208 23.472062 26.921875 23.914062 C 27.287768 23.99688 27.633866 24.134528 27.962891 24.316406 C 28.875645 23.895091 29.594521 23.341685 30.113281 22.652344 C 30.825447 21.71901 31.181641 20.524179 31.181641 19.070312 C 31.181641 18.904554 31.168643 18.748579 31.160156 18.589844 z M 19.712891 25.875 L 19.712891 26.673828 L 21.330078 26.673828 C 22.25985 26.673828 23.00078 26.876497 23.554688 27.279297 C 24.118485 27.68203 24.672782 28.432936 25.216797 29.533203 L 27.916016 35 L 34 35 L 33.601562 34.199219 L 27.916016 34.199219 L 25.216797 28.732422 C 24.672782 27.632155 24.118485 26.881249 23.554688 26.478516 C 23.00078 26.075716 22.25985 25.875 21.330078 25.875 L 19.712891 25.875 z M 14 34.199219 L 14 35 L 19.712891 35 L 19.712891 34.199219 L 14 34.199219 z "
       transform="translate(0,1004.3622)"
       id="path4237" />
    <path
       style="font-style:normal;font-variant:normal;font-weight:bold;font-stretch:normal;font-size:medium;line-height:125%;font-family:Sans;-inkscape-font-specification:'Sans Bold';letter-spacing:0px;word-spacing:0px;fill:#ffffff;fill-opacity:0.23529412;stroke:none"
       d="M 14 13 L 14 13.400391 L 22.724609 13.400391 C 25.642513 13.400391 27.777719 13.886842 29.132812 14.859375 C 30.443993 15.793637 31.120191 17.253905 31.171875 19.230469 C 31.172924 19.175439 31.181641 19.126109 31.181641 19.070312 C 31.181641 16.968112 30.497798 15.431584 29.132812 14.458984 C 27.777719 13.486451 25.642513 13 22.724609 13 L 14 13 z M 25.455078 20.111328 C 25.420443 21.013525 25.168587 21.681111 24.681641 22.091797 C 24.167299 22.533797 23.312069 22.753906 22.115234 22.753906 L 19.712891 22.753906 L 19.712891 23.154297 L 22.115234 23.154297 C 23.312069 23.154297 24.167299 22.934188 24.681641 22.492188 C 25.205875 22.050054 25.46875 21.322347 25.46875 20.310547 C 25.46875 20.238982 25.457752 20.179986 25.455078 20.111328 z M 27.503906 24.894531 C 27.312227 24.969109 27.128793 25.051023 26.921875 25.115234 C 27.70328 25.292101 28.402371 25.693599 29.015625 26.322266 C 29.63877 26.941266 30.2654 27.885144 30.898438 29.152344 L 33.800781 35 L 34 35 L 30.898438 28.751953 C 30.2654 27.484753 29.63877 26.542828 29.015625 25.923828 C 28.559041 25.455769 28.0537 25.112149 27.503906 24.894531 z "
       transform="translate(0,1004.3622)"
       id="path4242" />
  </g>
</svg>
